<svg width="71" height="40" viewBox="0 0 71 40" fill="none" xmlns="http://www.w3.org/2000/svg">
<rect width="71" height="40" rx="5" fill="black"/>
<path d="M14.6409 28.32C15.4089 28.32 16.0382 28.2293 16.5289 28.048C17.0302 27.856 17.4302 27.6053 17.7289 27.296C18.0275 26.9867 18.2355 26.6347 18.3529 26.24C18.4702 25.8347 18.5289 25.4187 18.5289 24.992C18.5289 24.5227 18.4595 24.1013 18.3209 23.728C18.1822 23.3547 17.9582 23.04 17.6489 22.784C17.3395 22.5173 16.9342 22.3147 16.4329 22.176C15.9422 22.0373 15.3342 21.968 14.6089 21.968H10.5289V28.32H14.6409ZM10.5289 12.432V18.704H13.6809C14.3529 18.704 14.9502 18.6507 15.4729 18.544C15.9955 18.4267 16.4329 18.2453 16.7849 18C17.1369 17.7547 17.4035 17.4347 17.5849 17.04C17.7769 16.6347 17.8729 16.1493 17.8729 15.584C17.8729 15.008 17.7929 14.5173 17.6329 14.112C17.4835 13.7067 17.2489 13.3813 16.9289 13.136C16.6089 12.8907 16.2035 12.7147 15.7129 12.608C15.2222 12.4907 14.6409 12.432 13.9689 12.432H10.5289ZM13.9689 8.784C15.5262 8.784 16.8542 8.93333 17.9529 9.232C19.0622 9.52 19.9635 9.936 20.6569 10.48C21.3609 11.0133 21.8729 11.664 22.1929 12.432C22.5129 13.2 22.6729 14.0587 22.6729 15.008C22.6729 15.5413 22.5929 16.0533 22.4329 16.544C22.2835 17.0347 22.0435 17.4987 21.7129 17.936C21.3929 18.3627 20.9769 18.752 20.4649 19.104C19.9529 19.456 19.3449 19.7547 18.6409 20C20.2195 20.3733 21.3875 20.9813 22.1449 21.824C22.9022 22.6667 23.2809 23.76 23.2809 25.104C23.2809 26.0853 23.0889 26.9973 22.7049 27.84C22.3315 28.6827 21.7822 29.4133 21.0569 30.032C20.3315 30.6507 19.4355 31.136 18.3689 31.488C17.3129 31.8293 16.0969 32 14.7209 32H5.72888V8.784H13.9689ZM30.5376 8.144V32H26.1216V8.144H30.5376ZM41.6546 15.248C42.892 15.248 44.0173 15.4453 45.0306 15.84C46.044 16.2347 46.9133 16.8 47.6386 17.536C48.364 18.2613 48.924 19.1467 49.3186 20.192C49.7133 21.2373 49.9106 22.416 49.9106 23.728C49.9106 25.04 49.7133 26.224 49.3186 27.28C48.924 28.3253 48.364 29.216 47.6386 29.952C46.9133 30.688 46.044 31.2533 45.0306 31.648C44.0173 32.0427 42.892 32.24 41.6546 32.24C40.4066 32.24 39.2706 32.0427 38.2466 31.648C37.2333 31.2533 36.364 30.688 35.6386 29.952C34.9133 29.216 34.348 28.3253 33.9426 27.28C33.548 26.224 33.3506 25.04 33.3506 23.728C33.3506 22.416 33.548 21.2373 33.9426 20.192C34.348 19.1467 34.9133 18.2613 35.6386 17.536C36.364 16.8 37.2333 16.2347 38.2466 15.84C39.2706 15.4453 40.4066 15.248 41.6546 15.248ZM41.6546 28.928C42.9133 28.928 43.8466 28.496 44.4546 27.632C45.0626 26.7573 45.3666 25.4613 45.3666 23.744C45.3666 22.0373 45.0626 20.752 44.4546 19.888C43.8466 19.0133 42.9133 18.576 41.6546 18.576C40.364 18.576 39.4146 19.0133 38.8066 19.888C38.1986 20.752 37.8946 22.0373 37.8946 23.744C37.8946 25.4613 38.1986 26.7573 38.8066 27.632C39.4146 28.496 40.364 28.928 41.6546 28.928ZM58.6711 23.136C59.5778 23.136 60.2445 22.9067 60.6711 22.448C61.1085 21.9893 61.3271 21.3973 61.3271 20.672C61.3271 19.9147 61.1085 19.3227 60.6711 18.896C60.2445 18.4587 59.5778 18.24 58.6711 18.24C57.7645 18.24 57.0978 18.4587 56.6711 18.896C56.2445 19.3227 56.0311 19.9147 56.0311 20.672C56.0311 21.3867 56.2445 21.9787 56.6711 22.448C57.1085 22.9067 57.7751 23.136 58.6711 23.136ZM62.8471 32.672C62.8471 32.384 62.7565 32.1493 62.5751 31.968C62.3938 31.7867 62.1485 31.6427 61.8391 31.536C61.5405 31.4293 61.1831 31.3547 60.7671 31.312C60.3511 31.2587 59.9085 31.2213 59.4391 31.2C58.9698 31.168 58.4845 31.1413 57.9831 31.12C57.4818 31.0987 56.9911 31.0613 56.5111 31.008C56.1378 31.232 55.8285 31.4987 55.5831 31.808C55.3485 32.1067 55.2311 32.448 55.2311 32.832C55.2311 33.0987 55.2898 33.344 55.4071 33.568C55.5351 33.792 55.7431 33.984 56.0311 34.144C56.3191 34.304 56.6978 34.4267 57.1671 34.512C57.6365 34.608 58.2231 34.656 58.9271 34.656C59.6525 34.656 60.2658 34.608 60.7671 34.512C61.2685 34.416 61.6738 34.2773 61.9831 34.096C62.2925 33.9253 62.5111 33.7173 62.6391 33.472C62.7778 33.2267 62.8471 32.96 62.8471 32.672ZM67.2311 16.048V17.664C67.2311 17.92 67.1565 18.1227 67.0071 18.272C66.8685 18.4213 66.6338 18.5333 66.3031 18.608L64.9591 18.88C65.1405 19.4027 65.2311 19.9627 65.2311 20.56C65.2311 21.3813 65.0605 22.1227 64.7191 22.784C64.3885 23.4347 63.9298 23.9947 63.3431 24.464C62.7565 24.9227 62.0631 25.28 61.2631 25.536C60.4631 25.7813 59.5991 25.904 58.6711 25.904C58.0845 25.904 57.5351 25.856 57.0231 25.76C56.5751 26.0373 56.3511 26.3413 56.3511 26.672C56.3511 26.9813 56.5005 27.2053 56.7991 27.344C57.1085 27.4827 57.5085 27.584 57.9991 27.648C58.5005 27.7013 59.0658 27.7387 59.6951 27.76C60.3351 27.7707 60.9805 27.8027 61.6311 27.856C62.2925 27.9093 62.9378 28.0053 63.5671 28.144C64.2071 28.272 64.7725 28.4907 65.2631 28.8C65.7645 29.0987 66.1645 29.4987 66.4631 30C66.7725 30.5013 66.9271 31.1467 66.9271 31.936C66.9271 32.672 66.7458 33.3867 66.3831 34.08C66.0205 34.7733 65.4925 35.392 64.7991 35.936C64.1165 36.48 63.2738 36.9173 62.2711 37.248C61.2685 37.5787 60.1271 37.744 58.8471 37.744C57.5778 37.744 56.4738 37.6213 55.5351 37.376C54.6071 37.1413 53.8338 36.8213 53.2151 36.416C52.6071 36.0213 52.1538 35.5627 51.8551 35.04C51.5565 34.5173 51.4071 33.9733 51.4071 33.408C51.4071 32.672 51.6311 32.048 52.0791 31.536C52.5271 31.024 53.1458 30.6133 53.9351 30.304C53.5191 30.0693 53.1831 29.7653 52.9271 29.392C52.6818 29.008 52.5591 28.512 52.5591 27.904C52.5591 27.4133 52.7351 26.896 53.0871 26.352C53.4498 25.808 54.0045 25.3547 54.7511 24.992C53.9085 24.544 53.2418 23.9467 52.7511 23.2C52.2605 22.4427 52.0151 21.5627 52.0151 20.56C52.0151 19.7387 52.1805 18.9973 52.5111 18.336C52.8525 17.6747 53.3218 17.1147 53.9191 16.656C54.5165 16.1867 55.2205 15.8293 56.0311 15.584C56.8418 15.3387 57.7218 15.216 58.6711 15.216C60.0791 15.216 61.3218 15.4933 62.3991 16.048H67.2311Z" fill="white"/>
</svg>
