<svg width="100" height="60" viewBox="0 0 100 60" fill="none" xmlns="http://www.w3.org/2000/svg">
<rect width="100" height="60" rx="5" fill="black"/>
<path d="M23.9261 40.4C24.8861 40.4 25.6728 40.2867 26.2861 40.06C26.9128 39.82 27.4128 39.5067 27.7861 39.12C28.1594 38.7333 28.4194 38.2933 28.5661 37.8C28.7128 37.2933 28.7861 36.7733 28.7861 36.24C28.7861 35.6533 28.6994 35.1267 28.5261 34.66C28.3528 34.1933 28.0728 33.8 27.6861 33.48C27.2994 33.1467 26.7928 32.8933 26.1661 32.72C25.5528 32.5467 24.7928 32.46 23.8861 32.46H18.7861V40.4H23.9261ZM18.7861 20.54V28.38H22.7261C23.5661 28.38 24.3128 28.3133 24.9661 28.18C25.6194 28.0333 26.1661 27.8067 26.6061 27.5C27.0461 27.1933 27.3794 26.7933 27.6061 26.3C27.8461 25.7933 27.9661 25.1867 27.9661 24.48C27.9661 23.76 27.8661 23.1467 27.6661 22.64C27.4794 22.1333 27.1861 21.7267 26.7861 21.42C26.3861 21.1133 25.8794 20.8933 25.2661 20.76C24.6528 20.6133 23.9261 20.54 23.0861 20.54H18.7861ZM23.0861 15.98C25.0328 15.98 26.6928 16.1667 28.0661 16.54C29.4528 16.9 30.5794 17.42 31.4461 18.1C32.3261 18.7667 32.9661 19.58 33.3661 20.54C33.7661 21.5 33.9661 22.5733 33.9661 23.76C33.9661 24.4267 33.8661 25.0667 33.6661 25.68C33.4794 26.2933 33.1794 26.8733 32.7661 27.42C32.3661 27.9533 31.8461 28.44 31.2061 28.88C30.5661 29.32 29.8061 29.6933 28.9261 30C30.8994 30.4667 32.3594 31.2267 33.3061 32.28C34.2528 33.3333 34.7261 34.7 34.7261 36.38C34.7261 37.6067 34.4861 38.7467 34.0061 39.8C33.5394 40.8533 32.8528 41.7667 31.9461 42.54C31.0394 43.3133 29.9194 43.92 28.5861 44.36C27.2661 44.7867 25.7461 45 24.0261 45H12.7861V15.98H23.0861ZM43.797 15.18V45H38.277V15.18H43.797ZM57.6933 24.06C59.2399 24.06 60.6466 24.3067 61.9133 24.8C63.1799 25.2933 64.2666 26 65.1733 26.92C66.0799 27.8267 66.7799 28.9333 67.2733 30.24C67.7666 31.5467 68.0133 33.02 68.0133 34.66C68.0133 36.3 67.7666 37.78 67.2733 39.1C66.7799 40.4067 66.0799 41.52 65.1733 42.44C64.2666 43.36 63.1799 44.0667 61.9133 44.56C60.6466 45.0533 59.2399 45.3 57.6933 45.3C56.1333 45.3 54.7133 45.0533 53.4333 44.56C52.1666 44.0667 51.0799 43.36 50.1733 42.44C49.2666 41.52 48.5599 40.4067 48.0533 39.1C47.5599 37.78 47.3133 36.3 47.3133 34.66C47.3133 33.02 47.5599 31.5467 48.0533 30.24C48.5599 28.9333 49.2666 27.8267 50.1733 26.92C51.0799 26 52.1666 25.2933 53.4333 24.8C54.7133 24.3067 56.1333 24.06 57.6933 24.06ZM57.6933 41.16C59.2666 41.16 60.4333 40.62 61.1933 39.54C61.9533 38.4467 62.3333 36.8267 62.3333 34.68C62.3333 32.5467 61.9533 30.94 61.1933 29.86C60.4333 28.7667 59.2666 28.22 57.6933 28.22C56.0799 28.22 54.8933 28.7667 54.1333 29.86C53.3733 30.94 52.9933 32.5467 52.9933 34.68C52.9933 36.8267 53.3733 38.4467 54.1333 39.54C54.8933 40.62 56.0799 41.16 57.6933 41.16ZM78.9639 33.92C80.0972 33.92 80.9306 33.6333 81.4639 33.06C82.0106 32.4867 82.2839 31.7467 82.2839 30.84C82.2839 29.8933 82.0106 29.1533 81.4639 28.62C80.9306 28.0733 80.0972 27.8 78.9639 27.8C77.8306 27.8 76.9972 28.0733 76.4639 28.62C75.9306 29.1533 75.6639 29.8933 75.6639 30.84C75.6639 31.7333 75.9306 32.4733 76.4639 33.06C77.0106 33.6333 77.8439 33.92 78.9639 33.92ZM84.1839 45.84C84.1839 45.48 84.0706 45.1867 83.8439 44.96C83.6172 44.7333 83.3106 44.5533 82.9239 44.42C82.5506 44.2867 82.1039 44.1933 81.5839 44.14C81.0639 44.0733 80.5106 44.0267 79.9239 44C79.3372 43.96 78.7306 43.9267 78.1039 43.9C77.4772 43.8733 76.8639 43.8267 76.2639 43.76C75.7972 44.04 75.4106 44.3733 75.1039 44.76C74.8106 45.1333 74.6639 45.56 74.6639 46.04C74.6639 46.3733 74.7372 46.68 74.8839 46.96C75.0439 47.24 75.3039 47.48 75.6639 47.68C76.0239 47.88 76.4972 48.0333 77.0839 48.14C77.6706 48.26 78.4039 48.32 79.2839 48.32C80.1906 48.32 80.9572 48.26 81.5839 48.14C82.2106 48.02 82.7172 47.8467 83.1039 47.62C83.4906 47.4067 83.7639 47.1467 83.9239 46.84C84.0972 46.5333 84.1839 46.2 84.1839 45.84ZM89.6639 25.06V27.08C89.6639 27.4 89.5706 27.6533 89.3839 27.84C89.2106 28.0267 88.9172 28.1667 88.5039 28.26L86.8239 28.6C87.0506 29.2533 87.1639 29.9533 87.1639 30.7C87.1639 31.7267 86.9506 32.6533 86.5239 33.48C86.1106 34.2933 85.5372 34.9933 84.8039 35.58C84.0706 36.1533 83.2039 36.6 82.2039 36.92C81.2039 37.2267 80.1239 37.38 78.9639 37.38C78.2306 37.38 77.5439 37.32 76.9039 37.2C76.3439 37.5467 76.0639 37.9267 76.0639 38.34C76.0639 38.7267 76.2506 39.0067 76.6239 39.18C77.0106 39.3533 77.5106 39.48 78.1239 39.56C78.7506 39.6267 79.4572 39.6733 80.2439 39.7C81.0439 39.7133 81.8506 39.7533 82.6639 39.82C83.4906 39.8867 84.2972 40.0067 85.0839 40.18C85.8839 40.34 86.5906 40.6133 87.2039 41C87.8306 41.3733 88.3306 41.8733 88.7039 42.5C89.0906 43.1267 89.2839 43.9333 89.2839 44.92C89.2839 45.84 89.0572 46.7333 88.6039 47.6C88.1506 48.4667 87.4906 49.24 86.6239 49.92C85.7706 50.6 84.7172 51.1467 83.4639 51.56C82.2106 51.9733 80.7839 52.18 79.1839 52.18C77.5972 52.18 76.2172 52.0267 75.0439 51.72C73.8839 51.4267 72.9172 51.0267 72.1439 50.52C71.3839 50.0267 70.8172 49.4533 70.4439 48.8C70.0706 48.1467 69.8839 47.4667 69.8839 46.76C69.8839 45.84 70.1639 45.06 70.7239 44.42C71.2839 43.78 72.0572 43.2667 73.0439 42.88C72.5239 42.5867 72.1039 42.2067 71.7839 41.74C71.4772 41.26 71.3239 40.64 71.3239 39.88C71.3239 39.2667 71.5439 38.62 71.9839 37.94C72.4372 37.26 73.1306 36.6933 74.0639 36.24C73.0106 35.68 72.1772 34.9333 71.5639 34C70.9506 33.0533 70.6439 31.9533 70.6439 30.7C70.6439 29.6733 70.8506 28.7467 71.2639 27.92C71.6906 27.0933 72.2772 26.3933 73.0239 25.82C73.7706 25.2333 74.6506 24.7867 75.6639 24.48C76.6772 24.1733 77.7772 24.02 78.9639 24.02C80.7239 24.02 82.2772 24.3667 83.6239 25.06H89.6639Z" fill="white"/>
</svg>
